<svg xmlns="http://www.w3.org/2000/svg" width="1000" height="800" viewBox="0 0 1000 800">
  <defs>
    <linearGradient id="bg" x1="0" y1="0" x2="1" y2="1">
      <stop offset="0%" stop-color="#ffe7f2"/>
      <stop offset="100%" stop-color="#fff1f8"/>
    </linearGradient>
    <filter id="shadow" x="-20%" y="-20%" width="140%" height="140%">
      <feDropShadow dx="0" dy="6" stdDeviation="10" flood-color="#d38" flood-opacity="0.2"/>
    </filter>
  </defs>

  <!-- Row 1 -->
  <g transform="translate(0,0)">
    <rect x="10" y="10" width="190" height="190" rx="32" fill="#ffdee5" filter="url(#shadow)"/>
    <circle cx="105" cy="100" r="48" fill="#f8d4de"/>
    <path d="M90 72 Q105 50 120 72 Q118 58 105 44 Q92 58 90 72 Z" fill="#fff"/>
    <circle cx="90" cy="96" r="8" fill="#000"/>
    <circle cx="120" cy="96" r="8" fill="#000"/>
    <path d="M95 126 Q105 138 115 126" stroke="#d14977" stroke-width="4" fill="none"/>
  </g>
  <g transform="translate(200,0)">
    <rect x="10" y="10" width="190" height="190" rx="32" fill="#f4e2d8" filter="url(#shadow)"/>
    <circle cx="105" cy="92" r="38" fill="#f7c5b1"/>
    <circle cx="85" cy="80" r="10" fill="#fff"/>
    <circle cx="125" cy="80" r="10" fill="#fff"/>
    <circle cx="85" cy="80" r="4" fill="#6b3d30"/>
    <circle cx="125" cy="80" r="4" fill="#6b3d30"/>
    <path d="M85 110 Q105 128 125 110" stroke="#ca5b57" stroke-width="5" fill="none"/>
    <path d="M100 40 L90 70 L110 70 Z" fill="#f1a0a4"/>
  </g>
  <g transform="translate(400,0)">
    <rect x="10" y="10" width="190" height="190" rx="32" fill="#fff0d6" filter="url(#shadow)"/>
    <circle cx="105" cy="92" r="40" fill="#f6d2b5"/>
    <ellipse cx="90" cy="82" rx="12" ry="9" fill="#fff"/>
    <ellipse cx="120" cy="82" rx="12" ry="9" fill="#fff"/>
    <circle cx="90" cy="82" r="4" fill="#000"/>
    <circle cx="120" cy="82" r="4" fill="#000"/>
    <path d="M90 110 Q105 122 120 110" stroke="#b05c35" stroke-width="4" fill="none"/>
    <path d="M70 40 L90 18 L110 40" fill="#f6d2b5"/>
  </g>
  <g transform="translate(600,0)">
    <rect x="10" y="10" width="190" height="190" rx="32" fill="#e8f2ff" filter="url(#shadow)"/>
    <ellipse cx="105" cy="100" rx="48" ry="54" fill="#f7d8be"/>
    <circle cx="85" cy="84" r="10" fill="#fff"/>
    <circle cx="125" cy="84" r="10" fill="#fff"/>
    <circle cx="85" cy="84" r="4" fill="#663d1d"/>
    <circle cx="125" cy="84" r="4" fill="#663d1d"/>
    <path d="M90 120 Q105 132 120 120" stroke="#d06f32" stroke-width="5" fill="none"/>
    <path d="M70 42 Q80 18 100 44 Q120 18 130 42" fill="#f8b384"/>
  </g>
  <g transform="translate(800,0)">
    <rect x="10" y="10" width="190" height="190" rx="32" fill="#eef3ff" filter="url(#shadow)"/>
    <ellipse cx="105" cy="98" rx="45" ry="50" fill="#d1e4ff"/>
    <circle cx="88" cy="86" r="11" fill="#fff"/>
    <circle cx="122" cy="86" r="11" fill="#fff"/>
    <circle cx="88" cy="86" r="4" fill="#050b18"/>
    <circle cx="122" cy="86" r="4" fill="#050b18"/>
    <path d="M95 116 Q105 128 115 116" stroke="#39618f" stroke-width="4" fill="none"/>
    <path d="M85 44 Q105 14 125 44" fill="#a3c6ff"/>
  </g>

  <!-- Row 2 -->
  <g transform="translate(0,200)">
    <rect x="10" y="10" width="190" height="190" rx="32" fill="#fff2d8" filter="url(#shadow)"/>
    <circle cx="90" cy="92" r="26" fill="#fff9d3"/>
    <circle cx="120" cy="92" r="26" fill="#fff9d3"/>
    <circle cx="90" cy="92" r="10" fill="#4c2f0e"/>
    <circle cx="120" cy="92" r="10" fill="#4c2f0e"/>
    <path d="M80 118 Q90 132 100 118" stroke="#8b5c3c" stroke-width="5" fill="none"/>
    <path d="M70 60 Q100 40 130 60" fill="#f7e2b5"/>
  </g>
  <g transform="translate(200,200)">
    <rect x="10" y="10" width="190" height="190" rx="32" fill="#f2f5e9" filter="url(#shadow)"/>
    <circle cx="105" cy="90" r="40" fill="#d8b999"/>
    <circle cx="78" cy="95" r="10" fill="#fff"/>
    <circle cx="132" cy="95" r="10" fill="#fff"/>
    <circle cx="78" cy="95" r="4" fill="#3d240f"/>
    <circle cx="132" cy="95" r="4" fill="#3d240f"/>
    <path d="M85 126 Q105 138 125 126" stroke="#b77a4d" stroke-width="5" fill="none"/>
    <path d="M90 60 Q105 40 120 60" fill="#e8c9b5"/>
    <circle cx="115" cy="60" r="8" fill="#fff"/>
  </g>
  <g transform="translate(400,200)">
    <rect x="10" y="10" width="190" height="190" rx="32" fill="#f4f5fb" filter="url(#shadow)"/>
    <circle cx="105" cy="94" r="42" fill="#f4f4f8"/>
    <circle cx="90" cy="80" r="10" fill="#fff"/>
    <circle cx="120" cy="80" r="10" fill="#fff"/>
    <circle cx="90" cy="80" r="4" fill="#453f42"/>
    <circle cx="120" cy="80" r="4" fill="#453f42"/>
    <path d="M92 116 Q105 130 118 116" stroke="#ceb8aa" stroke-width="5" fill="none"/>
    <path d="M80 58 Q105 28 130 58" fill="#f1dcd2"/>
    <text x="105" y="168" text-anchor="middle" font-size="22" fill="#8a5f71">you</text>
  </g>
  <g transform="translate(600,200)">
    <rect x="10" y="10" width="190" height="190" rx="32" fill="#f7dff3" filter="url(#shadow)"/>
    <circle cx="105" cy="94" r="42" fill="#fddde3"/>
    <circle cx="90" cy="78" r="10" fill="#fff"/>
    <circle cx="120" cy="78" r="10" fill="#fff"/>
    <circle cx="90" cy="78" r="4" fill="#2f4024"/>
    <circle cx="120" cy="78" r="4" fill="#2f4024"/>
    <path d="M92 118 Q105 132 118 118" stroke="#39592c" stroke-width="4" fill="none"/>
    <ellipse cx="105" cy="170" rx="40" ry="18" fill="#f7d7ef"/>
  </g>
  <g transform="translate(800,200)">
    <rect x="10" y="10" width="190" height="190" rx="32" fill="#e8f7ff" filter="url(#shadow)"/>
    <circle cx="105" cy="94" r="42" fill="#d8efff"/>
    <circle cx="95" cy="88" r="10" fill="#fff"/>
    <circle cx="115" cy="88" r="10" fill="#fff"/>
    <circle cx="95" cy="88" r="4" fill="#33414e"/>
    <circle cx="115" cy="88" r="4" fill="#33414e"/>
    <path d="M98 118 Q105 130 112 118" stroke="#36709f" stroke-width="4" fill="none"/>
    <path d="M82 58 Q105 30 128 58" fill="#a7d9ff"/>
  </g>

  <!-- Row 3 -->
  <g transform="translate(0,400)">
    <rect x="10" y="10" width="190" height="190" rx="32" fill="#eef1ff" filter="url(#shadow)"/>
    <circle cx="105" cy="94" r="40" fill="#ffddc4"/>
    <circle cx="88" cy="82" r="10" fill="#fff"/>
    <circle cx="122" cy="82" r="10" fill="#fff"/>
    <circle cx="88" cy="82" r="4" fill="#3a220b"/>
    <circle cx="122" cy="82" r="4" fill="#3a220b"/>
    <path d="M90 116 Q105 130 120 116" stroke="#c85e23" stroke-width="5" fill="none"/>
    <path d="M82 46 Q105 16 128 46" fill="#ffb97f"/>
  </g>
  <g transform="translate(200,400)">
    <rect x="10" y="10" width="190" height="190" rx="32" fill="#f9efd8" filter="url(#shadow)"/>
    <circle cx="105" cy="95" r="45" fill="#f0cea3"/>
    <path d="M70 72 Q105 22 140 72" fill="#f5d2a2"/>
    <circle cx="85" cy="92" r="8" fill="#fff"/>
    <circle cx="125" cy="92" r="8" fill="#fff"/>
    <circle cx="85" cy="92" r="4" fill="#5c3c22"/>
    <circle cx="125" cy="92" r="4" fill="#5c3c22"/>
    <path d="M90 128 Q105 138 120 128" stroke="#b87f4f" stroke-width="5" fill="none"/>
  </g>
  <g transform="translate(400,400)">
    <rect x="10" y="10" width="190" height="190" rx="32" fill="#f2f0ff" filter="url(#shadow)"/>
    <circle cx="105" cy="94" r="40" fill="#fff6f3"/>
    <circle cx="90" cy="82" r="10" fill="#fff"/>
    <circle cx="120" cy="82" r="10" fill="#fff"/>
    <circle cx="90" cy="82" r="4" fill="#4a3835"/>
    <circle cx="120" cy="82" r="4" fill="#4a3835"/>
    <path d="M90 118 Q105 132 120 118" stroke="#c09c94" stroke-width="4" fill="none"/>
    <text x="105" y="170" text-anchor="middle" font-size="22" fill="#b46b84">you</text>
  </g>
  <g transform="translate(600,400)">
    <rect x="10" y="10" width="190" height="190" rx="32" fill="#e6f8f0" filter="url(#shadow)"/>
    <ellipse cx="105" cy="94" rx="40" ry="48" fill="#b8e6c9"/>
    <circle cx="90" cy="86" r="10" fill="#fff"/>
    <circle cx="120" cy="86" r="10" fill="#fff"/>
    <circle cx="90" cy="86" r="4" fill="#1e4f2f"/>
    <circle cx="120" cy="86" r="4" fill="#1e4f2f"/>
    <path d="M88 120 Q105 134 122 120" stroke="#2e6b41" stroke-width="4" fill="none"/>
    <path d="M68 80 Q75 50 105 70 Q135 50 142 80" fill="#95d8ac"/>
  </g>
  <g transform="translate(800,400)">
    <rect x="10" y="10" width="190" height="190" rx="32" fill="#fff0ee" filter="url(#shadow)"/>
    <circle cx="105" cy="94" r="40" fill="#ffe6f0"/>
    <circle cx="90" cy="82" r="10" fill="#fff"/>
    <circle cx="120" cy="82" r="10" fill="#fff"/>
    <circle cx="90" cy="82" r="4" fill="#7f4d4f"/>
    <circle cx="120" cy="82" r="4" fill="#7f4d4f"/>
    <path d="M92 120 Q105 130 118 120" stroke="#d8859d" stroke-width="4" fill="none"/>
    <path d="M98 44 Q105 24 112 44" fill="#ffb8d4"/>
  </g>
</svg>